<svg xmlns="http://www.w3.org/2000/svg" viewBox="0 0 69.34 17.7"><defs><style>.cls-1{fill:#48443e;fill-rule:evenodd;}.cls-2{fill:#7f7e7c;}</style></defs><title>Ресурс 1</title><g id="Слой_2" data-name="Слой 2"><g id="Слой_1-2" data-name="Слой 1"><path class="cls-1" d="M6.46.21,11,10H9.11L8.33,8.28h0L7.56,6.61h0l-2-4.37-2,4.37H6.08l.78,1.67H2.68L1.9,10H0L4.56.21Zm8,9.74L18.24.21H16.39L13.54,7.63,10.47.21H8.59l4,9.74ZM25.68,1.88H20.62V4.24h3.76l.43,1.67H20.62V8.28h5.06V10H18.89V.21h6.79V1.88ZM34,3.7a3.38,3.38,0,0,1-.15,1,3.25,3.25,0,0,1-.42.88,3.21,3.21,0,0,1-.65.73,3.35,3.35,0,0,1-.84.54L34,10H32L30.12,7.21H28.94l.7-1.67h.75A1.86,1.86,0,0,0,31.73,5a2,2,0,0,0,.41-.6,1.9,1.9,0,0,0,.14-.7A1.81,1.81,0,0,0,32.14,3a1.74,1.74,0,0,0-.41-.59,1.86,1.86,0,0,0-1.34-.54h-2V10H26.62V.21h3.77A3.51,3.51,0,0,1,31.8.49a3.43,3.43,0,0,1,1.14.75,3.44,3.44,0,0,1,.78,1.1A3.17,3.17,0,0,1,34,3.7Zm8.34,0a3.39,3.39,0,0,1-.16,1,3.55,3.55,0,0,1-.41.88,3.47,3.47,0,0,1-.65.73,3.6,3.6,0,0,1-.85.54L42.35,10H40.28L38.45,7.21H37.27L38,5.54h.75A1.87,1.87,0,0,0,40.07,5a2.17,2.17,0,0,0,.4-.6,1.73,1.73,0,0,0,.15-.7A1.65,1.65,0,0,0,40.47,3a1.86,1.86,0,0,0-1.74-1.13h-2V10H35V.21h3.78a3.47,3.47,0,0,1,1.4.28,3.64,3.64,0,0,1,1.93,1.85,3.32,3.32,0,0,1,.29,1.36Zm6-2a3.55,3.55,0,0,0-1.34.26,3.45,3.45,0,0,0-1.14.74,3.28,3.28,0,0,0-.77,1.1,3.19,3.19,0,0,0-.27,1.3,3.26,3.26,0,0,0,.27,1.3,3.18,3.18,0,0,0,.77,1.1,3.3,3.3,0,0,0,1.14.74,3.72,3.72,0,0,0,2.68,0,3.44,3.44,0,0,0,1.15-.74,3.15,3.15,0,0,0,.76-1.1,3.25,3.25,0,0,0,.26-1.3,3.18,3.18,0,0,0-.26-1.3,3.25,3.25,0,0,0-.76-1.1,3.6,3.6,0,0,0-1.15-.74,3.55,3.55,0,0,0-1.34-.26Zm0-1.67a5.19,5.19,0,0,1,2,.4A5.22,5.22,0,0,1,52.1,1.48,5.11,5.11,0,0,1,53.22,3.1a4.67,4.67,0,0,1,.41,2,4.66,4.66,0,0,1-.41,2A5.11,5.11,0,0,1,52.1,8.65a5.22,5.22,0,0,1-1.67,1.08,5.4,5.4,0,0,1-4.08,0,5.27,5.27,0,0,1-1.68-1.08A5.11,5.11,0,0,1,43.55,7a4.91,4.91,0,0,1,0-3.93,5.11,5.11,0,0,1,1.12-1.62A5.27,5.27,0,0,1,46.35.4a5.19,5.19,0,0,1,2-.4Zm12.9,1.88H56.23V4.24H60l.44,1.67h-4.2V8.28h5.06V10H54.5V.21h6.79V1.88Zm8.05,5.29a3.25,3.25,0,0,1-.23,1.23,2.71,2.71,0,0,1-.66.93,2.9,2.9,0,0,1-1,.59,4.17,4.17,0,0,1-1.36.21,6,6,0,0,1-3.67-1.21l1.19-1.16a3.35,3.35,0,0,0,1.07.64,2.8,2.8,0,0,0,.68.19c.21,0,.38,0,.52,0a2.43,2.43,0,0,0,.68-.09,1.68,1.68,0,0,0,.54-.25,1.05,1.05,0,0,0,.49-.91.85.85,0,0,0-.26-.63,1.34,1.34,0,0,0-.52-.36,2.58,2.58,0,0,0-.54-.23L65.72,6l-.13,0-.1,0-.09,0c-.2,0-.49-.15-.87-.29a5.71,5.71,0,0,1-1.13-.57A2.45,2.45,0,0,1,62.08,3a2.93,2.93,0,0,1,.3-1.38,2.67,2.67,0,0,1,.77-.92A3.15,3.15,0,0,1,64.21.15,4.6,4.6,0,0,1,65.36,0,5.45,5.45,0,0,1,67.1.24a6,6,0,0,1,1.13.47,2.81,2.81,0,0,1,.36.24l.27.22-1.23,1.2a2.86,2.86,0,0,0-.79-.57,2.94,2.94,0,0,0-1.27-.28,2.22,2.22,0,0,0-.57.07,1.8,1.8,0,0,0-.51.18,1.12,1.12,0,0,0-.63,1,.86.86,0,0,0,.26.64,1.7,1.7,0,0,0,.52.37,2.8,2.8,0,0,0,.57.22l.56.16.18,0,.27.08a4.08,4.08,0,0,1,.48.17l.6.26a7,7,0,0,1,.64.37A2.52,2.52,0,0,1,69.34,7.17Z"/><path class="cls-2" d="M16.05,16.52a1.19,1.19,0,0,1-.92-.36,1.56,1.56,0,0,1-.32-1,1.52,1.52,0,0,1,.33-1,1.18,1.18,0,0,1,.94-.38,2.58,2.58,0,0,1,.39,0,1.89,1.89,0,0,1,.31.1l-.13.35-.3-.09-.28,0c-.56,0-.83.35-.83,1.06a1.24,1.24,0,0,0,.2.77.69.69,0,0,0,.6.27,1.8,1.8,0,0,0,.7-.15v.37A1.54,1.54,0,0,1,16.05,16.52Z"/><path class="cls-2" d="M21.48,15.1a1.49,1.49,0,0,1-.34,1,1.17,1.17,0,0,1-.93.37,1.29,1.29,0,0,1-.65-.17,1.17,1.17,0,0,1-.44-.49A1.81,1.81,0,0,1,19,15.1a1.53,1.53,0,0,1,.33-1,1.23,1.23,0,0,1,.93-.37,1.16,1.16,0,0,1,.91.38A1.49,1.49,0,0,1,21.48,15.1Zm-2.08,0a1.29,1.29,0,0,0,.21.8.73.73,0,0,0,.61.28.75.75,0,0,0,.62-.28,1.29,1.29,0,0,0,.21-.8,1.28,1.28,0,0,0-.21-.79.74.74,0,0,0-.62-.27.71.71,0,0,0-.61.27A1.26,1.26,0,0,0,19.4,15.1Z"/><path class="cls-2" d="M25.81,16.47V14.71a.71.71,0,0,0-.15-.5.64.64,0,0,0-.48-.17.79.79,0,0,0-.63.23,1.2,1.2,0,0,0-.2.77v1.43h-.41V13.74h.34l.06.38h0a.93.93,0,0,1,.36-.32,1.19,1.19,0,0,1,.51-.11,1,1,0,0,1,.74.24,1,1,0,0,1,.25.76v1.78Z"/><path class="cls-2" d="M30.57,15.73a.7.7,0,0,1-.29.59,1.38,1.38,0,0,1-.79.2,1.77,1.77,0,0,1-.85-.17V16a2.6,2.6,0,0,0,.42.15,1.72,1.72,0,0,0,.44.06.94.94,0,0,0,.49-.1.35.35,0,0,0,0-.59,1.87,1.87,0,0,0-.54-.27A2.83,2.83,0,0,1,29,15a.69.69,0,0,1-.24-.24.63.63,0,0,1-.08-.32.62.62,0,0,1,.27-.53,1.34,1.34,0,0,1,.75-.19,2.18,2.18,0,0,1,.86.18l-.15.34a1.83,1.83,0,0,0-.74-.17.89.89,0,0,0-.45.09.3.3,0,0,0-.09.44.71.71,0,0,0,.18.15l.48.2a1.93,1.93,0,0,1,.66.36A.64.64,0,0,1,30.57,15.73Z"/><path class="cls-2" d="M33.36,13.74v1.77a.67.67,0,0,0,.16.5.61.61,0,0,0,.47.17.77.77,0,0,0,.63-.24,1.17,1.17,0,0,0,.2-.76V13.74h.41v2.73h-.34l-.06-.36h0a.88.88,0,0,1-.36.3,1.06,1.06,0,0,1-.51.11,1.1,1.1,0,0,1-.75-.23,1.05,1.05,0,0,1-.25-.76V13.74Z"/><path class="cls-2" d="M38.25,16.47h-.41V12.6h.41Z"/><path class="cls-2" d="M41.75,16.18a.75.75,0,0,0,.21,0l.16,0v.32a.64.64,0,0,1-.2.05l-.23,0c-.53,0-.79-.28-.79-.83V14.06h-.4v-.2l.4-.17.17-.58h.24v.63h.79v.32h-.79v1.61a.56.56,0,0,0,.12.38A.38.38,0,0,0,41.75,16.18Z"/><path class="cls-2" d="M44.37,13a.28.28,0,0,1,.07-.21.27.27,0,0,1,.34,0,.32.32,0,0,1,0,.42.24.24,0,0,1-.34,0A.28.28,0,0,1,44.37,13Zm.45,3.47H44.4V13.74h.42Z"/><path class="cls-2" d="M49.3,16.47V14.71a.67.67,0,0,0-.16-.5.61.61,0,0,0-.47-.17.79.79,0,0,0-.63.23,1.2,1.2,0,0,0-.2.77v1.43h-.41V13.74h.33l.07.38h0a.86.86,0,0,1,.36-.32,1.19,1.19,0,0,1,.51-.11,1,1,0,0,1,.74.24,1,1,0,0,1,.25.76v1.78Z"/><path class="cls-2" d="M54.53,13.74V14l-.51.06a1,1,0,0,1,.13.23,1,1,0,0,1,.05.32.81.81,0,0,1-.27.64,1.11,1.11,0,0,1-.75.24l-.23,0a.4.4,0,0,0-.27.35.16.16,0,0,0,.1.16.58.58,0,0,0,.31.06h.48a1.07,1.07,0,0,1,.69.19.65.65,0,0,1,.23.54.78.78,0,0,1-.36.69,1.93,1.93,0,0,1-1.06.24,1.5,1.5,0,0,1-.83-.2.65.65,0,0,1-.29-.56.7.7,0,0,1,.16-.44.82.82,0,0,1,.45-.24.35.35,0,0,1-.17-.15.38.38,0,0,1-.08-.23.45.45,0,0,1,.08-.26.84.84,0,0,1,.26-.22.73.73,0,0,1-.35-.3.83.83,0,0,1-.13-.47.91.91,0,0,1,.27-.7,1.1,1.1,0,0,1,.76-.24,1.46,1.46,0,0,1,.38.05Zm-2.18,3.19a.37.37,0,0,0,.19.34,1.07,1.07,0,0,0,.53.11,1.51,1.51,0,0,0,.77-.15.5.5,0,0,0,.26-.43.33.33,0,0,0-.14-.3,1,1,0,0,0-.52-.09H53a.64.64,0,0,0-.44.13A.47.47,0,0,0,52.35,16.93Zm.23-2.31a.54.54,0,0,0,.16.43.64.64,0,0,0,.45.15.53.53,0,0,0,.6-.59.54.54,0,0,0-.61-.62.55.55,0,0,0-.6.63Z"/></g></g></svg>